PathFileType	4	(x/y/z)	S05_PSF_T03
DataRate	CameraRate	NumFrames	NumMarkers	Units	OrigDataRate	OrigDataStartFrame	OrigNumFrames
240	240	10	50	mm	240	206	410
Frame#	Time	Sternum			R.Acromium			L.Acromium			Top.Head			R.ASIS			L.ASIS			R.PSIS			L.PSIS			R.Great.Tro			L.Great.Tro			R.Iliac.Crest			L.Iliac.Crest			V.Sacral			R.Thigh.Upper.Post			R.Thigh.Lower.Ant			R.Thigh.Lower.Post			R.Thigh.Upper.Ant			R.Knee.Lat			R.Knee.Med			R.Shank.Upper.Post			R.Shank.Lower.Ant			R.Shank.Lower.Post			R.Shank.Upper.Ant			R.Ankle.Lat			R.Ankle.Med			R.Heel.Upper			R.Heel.Med			R.Heel.Lat			R.Toe.Lat			R.Toe.Med			R.Toe.Tip			L.Thigh.Upper.Post			L.Thigh.Lower.Ant			L.Thigh.Lower.Post			L.Thigh.Upper.Ant			L.Knee.Lat			L.Shank.Upper.Post			L.Shank.Lower.Ant			L.Shank.Lower.Post			L.Shank.Upper.Ant			L.Ankle.Lat			L.Ankle.Med			L.Heel.Upper			L.Heel.Med			L.Heel.Lat			L.Toe.Lat			L.Toe.Med			L.Toe.Tip			Cervical.Spine			Back			
		X1	Y1	Z1	X2	Y2	Z2	X3	Y3	Z3	X4	Y4	Z4	X5	Y5	Z5	X6	Y6	Z6	X7	Y7	Z7	X8	Y8	Z8	X9	Y9	Z9	X10	Y10	Z10	X11	Y11	Z11	X12	Y12	Z12	X13	Y13	Z13	X14	Y14	Z14	X15	Y15	Z15	X16	Y16	Z16	X17	Y17	Z17	X18	Y18	Z18	X19	Y19	Z19	X20	Y20	Z20	X21	Y21	Z21	X22	Y22	Z22	X23	Y23	Z23	X24	Y24	Z24	X25	Y25	Z25	X26	Y26	Z26	X27	Y27	Z27	X28	Y28	Z28	X29	Y29	Z29	X30	Y30	Z30	X31	Y31	Z31	X32	Y32	Z32	X33	Y33	Z33	X34	Y34	Z34	X35	Y35	Z35	X36	Y36	Z36	X37	Y37	Z37	X38	Y38	Z38	X39	Y39	Z39	X40	Y40	Z40	X41	Y41	Z41	X42	Y42	Z42	X43	Y43	Z43	X44	Y44	Z44	X45	Y45	Z45	X46	Y46	Z46	X47	Y47	Z47	X48	Y48	Z48	X49	Y49	Z49	X50	Y50	Z50	

206	0.85417	-308.19	1270.3	297.6	-397.66	1524.6	463.57	-420.17	1550.8	139.61	-397.6	1839	301.74	-369.71	1019.9	429.06	-366.44	1022.1	178.6	-570.07	1032.4	338.97	-567.37	1029.7	247.5	-448.56	934.7	487.14	-442.85	935.44	100.64	-460.25	1101.4	465.22	-459.64	1097.8	129.64	-581.2	996.09	306.79	-383.01	715.27	474.77	-328.09	648.07	420.94	-392.44	628.46	449.38	-323.13	734.5	445.72	-393.82	531.04	426.99	-388.06	521.33	295.39	-475.66	291.4	408.35	-414.54	224.97	406.21	-476.22	216.71	388.97	-411.71	301.64	425.33	-429.7	121.69	386.27	-422.11	147.31	300.96	-500.76	75.185	321.85	-490.75	43.316	294.78	-494.1	47.592	359.66	-331.69	36.1	420.94	-291.07	40.716	302.05	-229.68	56.622	349.94	-357.34	711.61	95.825	-257.11	669.05	114.83	-315.07	626.16	106.57	-291.03	753.16	104.5	-288.64	546.81	112.87	-448.44	431.15	125.99	-431.23	344.4	122.72	-492.93	374.83	143.03	-390.95	401.76	110.41	-557.08	249.61	151.61	-512.44	238.57	233.35	-628.44	245.51	212.07	-630.67	218.91	244.75	-645.87	223.24	184.7	-513.58	110.19	113.86	-474.48	105.73	226.68	-423.41	77.787	166.78	-454.79	1575.3	309.61	-567.41	1300.8	304.1
207	0.85833	-303.03	1271	297.81	-392.35	1525.3	463.66	-414.96	1551.3	139.72	-392.03	1839.5	301.67	-364.96	1020.2	429.55	-360.98	1022.8	179.05	-565.02	1032.9	338.8	-562.09	1030.2	247.31	-444.3	935.04	487.2	-436.89	936.28	100.67	-455.42	1101.9	465.39	-454.19	1098.5	129.78	-576.06	996.62	306.54	-380.24	715.25	474.86	-325.58	647.66	421.23	-390.19	628.52	449.38	-320.08	734.06	446.11	-392.26	531.07	426.94	-386.14	521.33	295.3	-474.99	291.76	408.15	-414.05	225.13	406.07	-475.7	217.05	388.73	-411.02	301.76	425.11	-429.46	121.83	386.16	-421.85	147.4	300.81	-500.72	75.393	321.74	-490.84	43.416	294.66	-494.02	47.784	359.59	-331.66	36.114	420.94	-290.97	40.581	302.02	-229.59	56.39	349.93	-349.74	713.1	95.742	-249.29	671.28	115.32	-306.88	627.95	106.66	-283.8	755.15	104.88	-280.08	548.47	113.32	-437.87	429.35	126.2	-418.79	343.01	123	-481.13	372.1	143.19	-379.76	401.21	110.71	-542.53	245.42	151.7	-497.69	235.36	233.47	-614	239.63	212.03	-615.53	212.93	244.69	-630.8	216.93	184.68	-495.63	107.09	114.04	-456.57	103.69	226.91	-404.74	76.976	167.07	-449.51	1575.8	309.7	-562.19	1301.3	304.39
208	0.8625	-297.87	1271.6	298.01	-387.05	1526	463.75	-409.74	1551.8	139.83	-386.48	1840	301.57	-360.2	1020.4	430.01	-355.5	1023.4	179.48	-559.97	1033.4	338.61	-556.8	1030.6	247.12	-440.03	935.35	487.25	-430.93	937.08	100.69	-450.57	1102.3	465.55	-448.74	1099.1	129.91	-570.91	997.1	306.28	-377.47	715.22	474.94	-323.06	647.25	421.49	-387.92	628.57	449.37	-317.03	733.61	446.48	-390.68	531.09	426.86	-384.23	521.32	295.19	-474.32	292.11	407.96	-413.54	225.29	405.92	-475.16	217.38	388.5	-410.31	301.86	424.87	-429.22	121.97	386.04	-421.59	147.48	300.64	-500.69	75.602	321.63	-490.93	43.514	294.54	-493.93	47.976	359.51	-331.62	36.132	420.93	-290.87	40.445	301.99	-229.5	56.159	349.92	-342.22	714.53	95.656	-241.57	673.41	115.81	-298.83	629.67	106.75	-276.64	757.04	105.26	-271.68	550.04	113.76	-427.34	427.41	126.38	-406.36	341.53	123.27	-469.33	369.23	143.35	-368.62	400.56	110.98	-527.87	241.11	151.8	-482.84	232.06	233.59	-599.39	233.6	212.01	-600.19	206.81	244.65	-615.54	210.49	184.7	-477.54	103.99	114.21	-438.52	101.65	227.12	-385.96	76.2	167.31	-444.24	1576.3	309.79	-556.97	1301.8	304.66
209	0.86667	-292.71	1272.1	298.22	-381.76	1526.6	463.83	-404.52	1552.2	139.94	-380.93	1840.4	301.46	-355.44	1020.6	430.46	-350.01	1024	179.89	-554.92	1033.9	338.42	-551.52	1031.1	246.92	-435.77	935.63	487.3	-424.98	937.82	100.7	-445.71	1102.7	465.7	-443.28	1099.6	130.04	-565.76	997.54	306.01	-374.69	715.18	474.99	-320.53	646.83	421.73	-385.63	628.6	449.33	-313.98	733.15	446.82	-389.08	531.1	426.78	-382.3	521.29	295.07	-473.62	292.47	407.78	-413.02	225.44	405.77	-474.62	217.71	388.28	-409.58	301.96	424.62	-428.97	122.1	385.92	-421.33	147.56	300.47	-500.67	75.813	321.51	-491.01	43.611	294.42	-493.85	48.168	359.42	-331.59	36.154	420.91	-290.76	40.309	301.95	-229.41	55.931	349.91	-334.79	715.89	95.573	-233.97	675.43	116.29	-290.9	631.31	106.84	-269.56	758.83	105.64	-263.43	551.53	114.19	-416.87	425.33	126.56	-393.93	339.97	123.52	-457.51	366.23	143.51	-357.55	399.82	111.25	-513.1	236.71	151.9	-467.88	228.68	233.69	-584.6	227.44	212.02	-584.64	200.59	244.63	-600.09	203.93	184.74	-459.33	100.88	114.35	-420.31	99.625	227.29	-367.09	75.473	167.5	-438.98	1576.7	309.86	-551.76	1302.3	304.93
210	0.87083	-287.54	1272.6	298.43	-376.49	1527.1	463.91	-399.29	1552.6	140.03	-375.4	1840.8	301.33	-350.68	1020.7	430.88	-344.51	1024.5	180.28	-549.88	1034.3	338.22	-546.23	1031.4	246.71	-431.51	935.87	487.33	-419.04	938.5	100.7	-440.83	1103	465.84	-437.82	1100.1	130.16	-560.61	997.92	305.74	-371.89	715.12	475.02	-317.99	646.4	421.93	-383.31	628.63	449.27	-310.92	732.68	447.13	-387.45	531.1	426.68	-380.37	521.24	294.94	-472.91	292.82	407.62	-412.48	225.58	405.61	-474.06	218.03	388.06	-408.84	302.05	424.36	-428.73	122.24	385.79	-421.08	147.63	300.29	-500.66	76.025	321.39	-491.09	43.705	294.3	-493.76	48.359	359.34	-331.56	36.177	420.9	-290.66	40.173	301.9	-229.32	55.705	349.89	-327.46	717.18	95.496	-226.48	677.32	116.75	-283.12	632.85	106.93	-262.55	760.51	106	-255.34	552.93	114.61	-406.43	423.11	126.72	-381.5	338.33	123.77	-445.69	363.11	143.67	-346.53	398.99	111.49	-498.21	232.23	152	-452.82	225.24	233.77	-569.62	221.17	212.05	-568.89	194.28	244.65	-584.44	197.28	184.82	-441.01	97.804	114.45	-401.97	97.622	227.41	-348.14	74.81	167.62	-433.72	1577.1	309.93	-546.56	1302.7	305.2
211	0.875	-282.38	1273	298.64	-371.23	1527.6	463.99	-394.07	1552.9	140.12	-369.89	1841.1	301.18	-345.92	1020.8	431.29	-339	1024.9	180.66	-544.83	1034.7	338.01	-540.93	1031.8	246.49	-427.25	936.08	487.35	-413.1	939.13	100.69	-435.94	1103.3	465.98	-432.35	1100.5	130.27	-555.46	998.26	305.47	-369.08	715.05	475.03	-315.43	645.96	422.11	-380.98	628.64	449.19	-307.86	732.2	447.41	-385.78	531.09	426.56	-378.43	521.18	294.8	-472.18	293.18	407.48	-411.93	225.71	405.45	-473.49	218.35	387.85	-408.08	302.12	424.08	-428.48	122.37	385.66	-420.83	147.71	300.1	-500.65	76.234	321.26	-491.14	43.797	294.18	-493.68	48.549	359.25	-331.53	36.201	420.87	-290.55	40.04	301.86	-229.23	55.481	349.87	-320.23	718.39	95.429	-219.12	679.08	117.21	-275.48	634.3	107.03	-255.62	762.09	106.36	-247.42	554.22	115.02	-396.03	420.77	126.88	-369.09	336.62	123.99	-433.85	359.87	143.83	-335.57	398.08	111.71	-483.23	227.68	152.1	-437.65	221.76	233.84	-554.47	214.8	212.11	-552.92	187.89	244.69	-568.6	190.54	184.92	-422.58	94.768	114.53	-383.48	95.66	227.49	-329.11	74.227	167.68	-428.46	1577.4	310	-541.36	1303.1	305.45
212	0.87917	-277.22	1273.3	298.85	-365.97	1528.1	464.06	-388.84	1553.1	140.2	-364.38	1841.4	301	-341.15	1020.8	431.68	-333.48	1025.4	181.01	-539.78	1035	337.79	-535.63	1032	246.27	-422.98	936.26	487.36	-407.17	939.69	100.68	-431.04	1103.5	466.1	-426.86	1100.9	130.38	-550.31	998.56	305.18	-366.25	714.97	475.01	-312.85	645.52	422.26	-378.61	628.64	449.09	-304.78	731.72	447.66	-384.09	531.07	426.44	-376.48	521.11	294.65	-471.43	293.54	407.36	-411.36	225.84	405.3	-472.91	218.67	387.65	-407.3	302.19	423.81	-428.23	122.5	385.52	-420.58	147.78	299.9	-500.65	76.439	321.13	-491.17	43.886	294.07	-493.6	48.736	359.16	-331.5	36.225	420.85	-290.45	39.911	301.81	-229.14	55.26	349.85	-313.1	719.51	95.373	-211.87	680.71	117.66	-267.99	635.64	107.14	-248.78	763.54	106.71	-239.65	555.42	115.41	-385.66	418.31	127.02	-356.68	334.85	124.2	-421.99	356.53	143.99	-324.66	397.09	111.92	-468.13	223.09	152.21	-422.37	218.24	233.9	-539.12	208.36	212.2	-536.75	181.45	244.76	-552.56	183.75	185.05	-404.06	91.794	114.56	-364.87	93.756	227.52	-310.02	73.738	167.65	-423.21	1577.7	310.06	-536.17	1303.4	305.69
213	0.88333	-272.05	1273.6	299.07	-360.73	1528.5	464.14	-383.6	1553.3	140.28	-358.89	1841.6	300.81	-336.38	1020.8	432.04	-327.96	1025.7	181.35	-534.73	1035.2	337.56	-530.33	1032.3	246.03	-418.7	936.41	487.35	-401.24	940.2	100.66	-426.12	1103.7	466.21	-421.37	1101.2	130.47	-545.16	998.82	304.89	-363.39	714.88	474.98	-310.26	645.07	422.37	-376.21	628.62	448.98	-301.7	731.22	447.87	-382.36	531.05	426.3	-374.53	521.02	294.49	-470.65	293.9	407.27	-410.76	225.95	405.14	-472.33	218.99	387.47	-406.5	302.25	423.53	-427.97	122.62	385.38	-420.33	147.85	299.7	-500.64	76.636	321	-491.16	43.971	293.97	-493.51	48.92	359.07	-331.47	36.247	420.82	-290.35	39.786	301.76	-229.06	55.041	349.83	-306.09	720.54	95.332	-204.76	682.2	118.1	-260.65	636.87	107.25	-242.03	764.87	107.07	-232.05	556.51	115.79	-375.33	415.73	127.17	-344.29	333.02	124.4	-410.11	353.1	144.15	-313.81	396.02	112.11	-452.93	218.47	152.31	-406.98	214.7	233.94	-523.57	201.85	212.31	-520.36	174.97	244.85	-536.32	176.91	185.21	-385.44	88.899	114.54	-346.15	91.927	227.49	-290.88	73.358	167.55	-417.95	1577.9	310.12	-530.98	1303.7	305.91
214	0.8875	-266.89	1273.9	299.29	-355.49	1528.8	464.21	-378.37	1553.5	140.34	-353.42	1841.8	300.61	-331.59	1020.8	432.39	-322.43	1026	181.67	-529.67	1035.5	337.32	-525.01	1032.4	245.79	-414.42	936.53	487.34	-395.33	940.64	100.64	-421.19	1103.8	466.32	-415.85	1101.5	130.56	-540.01	999.03	304.59	-360.52	714.77	474.93	-307.64	644.61	422.46	-373.79	628.6	448.85	-298.6	730.7	448.06	-380.6	531.02	426.16	-372.57	520.92	294.32	-469.85	294.25	407.2	-410.16	226.06	404.99	-471.73	219.3	387.3	-405.68	302.31	423.25	-427.72	122.74	385.25	-420.08	147.93	299.5	-500.61	76.822	320.86	-491.13	44.053	293.88	-493.43	49.101	358.98	-331.44	36.266	420.79	-290.26	39.667	301.7	-228.97	54.825	349.81	-299.19	721.47	95.307	-197.78	683.55	118.53	-253.47	637.99	107.38	-235.38	766.07	107.41	-224.61	557.48	116.16	-365.01	413.05	127.31	-331.91	331.16	124.58	-398.21	349.58	144.31	-303.02	394.88	112.27	-437.64	213.83	152.42	-391.48	211.16	233.96	-507.83	195.29	212.45	-503.77	168.48	244.96	-519.89	170.05	185.39	-366.74	86.099	114.47	-327.31	90.188	227.39	-271.7	73.102	167.34	-412.7	1578.1	310.17	-525.79	1303.9	306.11
215	0.89167	-261.72	1274	299.51	-350.26	1529.1	464.28	-373.13	1553.6	140.41	-347.96	1842	300.39	-326.8	1020.7	432.72	-316.91	1026.2	181.98	-524.6	1035.7	337.06	-519.69	1032.6	245.54	-410.12	936.62	487.31	-389.43	941.02	100.61	-416.25	1103.9	466.41	-410.32	1101.7	130.63	-534.85	999.21	304.28	-357.62	714.66	474.86	-305.01	644.14	422.51	-371.33	628.56	448.72	-295.49	730.18	448.22	-378.81	530.97	426.02	-370.6	520.81	294.15	-469.03	294.6	407.15	-409.53	226.16	404.84	-471.13	219.61	387.14	-404.84	302.35	422.98	-427.46	122.86	385.11	-419.81	148.01	299.3	-500.57	76.993	320.72	-491.07	44.131	293.79	-493.36	49.279	358.88	-331.41	36.282	420.75	-290.16	39.556	301.65	-228.89	54.612	349.79	-292.42	722.29	95.299	-190.93	684.74	118.95	-246.45	638.98	107.52	-228.83	767.13	107.76	-217.33	558.34	116.53	-354.72	410.26	127.45	-319.55	329.25	124.74	-386.29	345.99	144.48	-292.29	393.67	112.42	-422.24	209.2	152.52	-375.87	207.63	233.96	-491.89	188.71	212.61	-486.96	161.98	245.1	-503.25	163.18	185.6	-347.97	83.413	114.34	-308.38	88.556	227.22	-252.49	72.985	167.05	-407.44	1578.3	310.21	-520.61	1304.1	306.3
